<svg width="13" height="13" viewBox="0 0 13 13" fill="none" xmlns="http://www.w3.org/2000/svg">
<path d="M0.325195 1C0.325195 0.723858 0.549053 0.5 0.825195 0.5H2.61809C3.07084 0.5 3.50505 0.679855 3.8252 1C4.14534 1.32014 4.57955 1.5 5.0323 1.5H11.9995C12.6638 1.5 13.1435 2.13591 12.961 2.77472L11.5324 7.77472C11.4098 8.20402 11.0174 8.5 10.5709 8.5H5.52991C5.1073 8.5 4.73031 8.23433 4.58817 7.83634L2.56222 2.16366C2.42008 1.76567 2.04309 1.5 1.62048 1.5H0.825195C0.549053 1.5 0.325195 1.27614 0.325195 1Z" fill="white"/>
<path d="M4.3252 11C4.3252 10.1716 4.99677 9.5 5.8252 9.5C6.65362 9.5 7.3252 10.1716 7.3252 11C7.3252 11.8284 6.65362 12.5 5.8252 12.5C4.99677 12.5 4.3252 11.8284 4.3252 11Z" fill="white"/>
<path d="M9.3252 11C9.3252 10.1716 9.99677 9.5 10.8252 9.5C11.6536 9.5 12.3252 10.1716 12.3252 11C12.3252 11.8284 11.6536 12.5 10.8252 12.5C9.99677 12.5 9.3252 11.8284 9.3252 11Z" fill="white"/>
</svg>
