<svg width="170" height="45" viewBox="0 0 170 45" fill="none" xmlns="http://www.w3.org/2000/svg">
<mask id="path-1-outside-1_12_63" maskUnits="userSpaceOnUse" x="-4.72588" y="0.089113" width="177.128" height="44.6336" fill="black">
<rect fill="white" x="-4.72588" y="0.089113" width="177.128" height="44.6336"/>
<path d="M46.5174 3C48.8372 3.04386 50.7417 3.74554 52.2307 5.10505C53.7198 6.46456 54.7777 8.0872 55.4044 9.97297C56.0767 11.8587 56.4247 13.8542 56.4482 15.9592C56.4718 18.0643 56.2102 20.2132 55.6635 22.4059C54.9418 25.3004 53.7513 28.1509 52.0917 30.9577C50.4888 33.7206 48.3455 36.1764 45.6618 38.3253C43.0238 40.4742 40.0833 41.6364 36.8405 41.8118H12.9159C9.74962 41.6803 7.36039 40.54 5.74822 38.3911C4.13604 36.2422 3.22284 33.7644 3.00861 30.9577C2.84009 28.1509 3.11665 25.3004 3.83832 22.4059C4.55999 19.5115 5.72226 16.6828 7.32515 13.9199C8.93897 11.1132 11.0649 8.63539 13.7029 6.48649C16.3976 4.29373 19.3609 3.13157 22.5928 3H46.5174ZM36.7075 32.9969C38.4661 32.9092 40.0587 32.2953 41.4855 31.155C42.969 29.9709 44.1534 28.6114 45.0389 27.0765C45.9243 25.5416 46.5638 23.9847 46.9574 22.4059C47.3511 20.8271 47.4596 19.2922 47.2829 17.8011C47.1629 16.2662 46.6792 14.9067 45.8319 13.7226C44.9846 12.5385 43.7036 11.9026 41.9888 11.8149H22.5201C20.7616 11.9026 19.1634 12.5385 17.7257 13.7226C16.2879 14.9067 15.1035 16.2662 14.1724 17.8011C13.2979 19.2922 12.6638 20.8271 12.2702 22.4059C11.8766 23.9847 11.7397 25.5416 11.8598 27.0765C11.9798 28.6114 12.4634 29.9709 13.3107 31.155C14.2147 32.2953 15.524 32.9092 17.2388 32.9969H36.7075Z"/>
<path d="M80.999 3H109.928C111.197 3.04386 112.133 3.50433 112.737 4.38144C113.386 5.25854 113.558 6.31107 113.252 7.53901C112.367 10.1703 110.527 11.5956 107.73 11.8149H81.1319C79.3734 11.9026 77.7753 12.5385 76.3375 13.7226C74.8997 14.9067 73.7153 16.2662 72.7842 17.8011C71.9097 19.2922 71.2757 20.8271 70.882 22.4059C70.4884 23.9847 70.3516 25.5416 70.4716 27.0765C70.6482 28.5676 71.1602 29.9052 72.0075 31.0892C72.8548 32.2733 74.1359 32.9092 75.8506 32.9969H96.6904C97.524 32.9531 98.0675 32.5145 98.3209 31.6813L99.2722 27.8659C99.4452 26.9888 99.1204 26.5502 98.2977 26.5502H80.7485C79.4688 26.5502 78.4759 26.1336 77.7696 25.3004C77.12 24.4233 76.9482 23.3707 77.2544 22.1428C77.5606 20.9148 78.2571 19.8623 79.3442 18.9852C80.4659 18.152 81.6666 17.7353 82.9463 17.7353H106.391C107.671 17.7353 108.664 18.152 109.37 18.9852C109.985 19.8185 110.167 20.8271 109.918 22.0112L106.047 37.536C105.706 38.72 105.026 39.7068 104.007 40.4962C102.931 41.3294 101.77 41.768 100.525 41.8118H71.3221C68.1667 41.6364 65.8058 40.4742 64.2393 38.3253C62.7295 36.1326 61.862 33.6548 61.6368 30.8919C61.4574 28.129 61.7285 25.3004 62.4501 22.4059C63.1718 19.5115 64.3341 16.6828 65.937 13.9199C67.5399 11.1571 69.6375 8.70117 72.2298 6.55227C74.8331 4.35951 77.7561 3.17542 80.999 3Z"/>
<path d="M166.412 7.40745C166.106 8.63539 165.392 9.66599 164.271 10.4992C163.184 11.3763 162 11.8149 160.721 11.8149H133.3C132.421 11.8587 131.64 12.0561 130.959 12.4069C130.334 12.7139 129.829 13.0867 129.446 13.5252C129.073 13.9199 128.832 14.3366 128.723 14.7751C128.614 15.2137 128.641 15.6522 128.806 16.0908C128.982 16.4855 129.3 16.8582 129.761 17.2091C130.279 17.5161 130.966 17.6915 131.824 17.7353H151.292C154.47 17.823 156.917 18.5467 158.635 19.9062C160.409 21.2218 161.511 22.7568 161.942 24.511C162.43 26.2213 162.45 27.9755 162.001 29.7736C161.564 31.5278 160.67 33.282 159.318 35.0362C157.978 36.7466 156.11 38.2815 153.714 39.641C151.33 40.9567 148.538 41.6145 145.339 41.6145H144.927C144.642 41.6583 144.363 41.6803 144.088 41.6803H118.176C116.896 41.6803 115.903 41.2636 115.197 40.4304C114.547 39.5533 114.376 38.5008 114.682 37.2728C114.988 36.0449 115.702 35.0143 116.824 34.181C117.911 33.3039 119.094 32.8654 120.374 32.8654H147.931C148.789 32.9092 149.535 32.7557 150.171 32.4049C150.853 32.0541 151.386 31.6594 151.769 31.2208C152.164 30.7384 152.421 30.256 152.541 29.7736C152.618 29.4666 152.585 29.05 152.442 28.5237C152.309 27.9536 151.99 27.4931 151.483 27.1423C151.023 26.7914 150.363 26.5941 149.506 26.5502H130.037C126.86 26.4625 124.384 25.7608 122.61 24.4452C120.882 23.1295 119.768 21.6384 119.27 19.972C118.828 18.2616 118.825 16.5293 119.263 14.7751C119.689 13.0648 120.567 11.3763 121.897 9.70984C123.237 7.99949 125.1 6.48649 127.484 5.17083C129.869 3.85518 132.672 3.15349 135.893 3.06578H136.304C136.589 3.02193 136.869 3 137.143 3H162.918C164.198 3 165.163 3.43855 165.812 4.31566C166.519 5.1489 166.719 6.1795 166.412 7.40745Z"/>
</mask>
<path d="M46.5174 3C48.8372 3.04386 50.7417 3.74554 52.2307 5.10505C53.7198 6.46456 54.7777 8.0872 55.4044 9.97297C56.0767 11.8587 56.4247 13.8542 56.4482 15.9592C56.4718 18.0643 56.2102 20.2132 55.6635 22.4059C54.9418 25.3004 53.7513 28.1509 52.0917 30.9577C50.4888 33.7206 48.3455 36.1764 45.6618 38.3253C43.0238 40.4742 40.0833 41.6364 36.8405 41.8118H12.9159C9.74962 41.6803 7.36039 40.54 5.74822 38.3911C4.13604 36.2422 3.22284 33.7644 3.00861 30.9577C2.84009 28.1509 3.11665 25.3004 3.83832 22.4059C4.55999 19.5115 5.72226 16.6828 7.32515 13.9199C8.93897 11.1132 11.0649 8.63539 13.7029 6.48649C16.3976 4.29373 19.3609 3.13157 22.5928 3H46.5174ZM36.7075 32.9969C38.4661 32.9092 40.0587 32.2953 41.4855 31.155C42.969 29.9709 44.1534 28.6114 45.0389 27.0765C45.9243 25.5416 46.5638 23.9847 46.9574 22.4059C47.3511 20.8271 47.4596 19.2922 47.2829 17.8011C47.1629 16.2662 46.6792 14.9067 45.8319 13.7226C44.9846 12.5385 43.7036 11.9026 41.9888 11.8149H22.5201C20.7616 11.9026 19.1634 12.5385 17.7257 13.7226C16.2879 14.9067 15.1035 16.2662 14.1724 17.8011C13.2979 19.2922 12.6638 20.8271 12.2702 22.4059C11.8766 23.9847 11.7397 25.5416 11.8598 27.0765C11.9798 28.6114 12.4634 29.9709 13.3107 31.155C14.2147 32.2953 15.524 32.9092 17.2388 32.9969H36.7075Z" fill="url(#paint0_linear_12_63)"/>
<path d="M80.999 3H109.928C111.197 3.04386 112.133 3.50433 112.737 4.38144C113.386 5.25854 113.558 6.31107 113.252 7.53901C112.367 10.1703 110.527 11.5956 107.73 11.8149H81.1319C79.3734 11.9026 77.7753 12.5385 76.3375 13.7226C74.8997 14.9067 73.7153 16.2662 72.7842 17.8011C71.9097 19.2922 71.2757 20.8271 70.882 22.4059C70.4884 23.9847 70.3516 25.5416 70.4716 27.0765C70.6482 28.5676 71.1602 29.9052 72.0075 31.0892C72.8548 32.2733 74.1359 32.9092 75.8506 32.9969H96.6904C97.524 32.9531 98.0675 32.5145 98.3209 31.6813L99.2722 27.8659C99.4452 26.9888 99.1204 26.5502 98.2977 26.5502H80.7485C79.4688 26.5502 78.4759 26.1336 77.7696 25.3004C77.12 24.4233 76.9482 23.3707 77.2544 22.1428C77.5606 20.9148 78.2571 19.8623 79.3442 18.9852C80.4659 18.152 81.6666 17.7353 82.9463 17.7353H106.391C107.671 17.7353 108.664 18.152 109.37 18.9852C109.985 19.8185 110.167 20.8271 109.918 22.0112L106.047 37.536C105.706 38.72 105.026 39.7068 104.007 40.4962C102.931 41.3294 101.77 41.768 100.525 41.8118H71.3221C68.1667 41.6364 65.8058 40.4742 64.2393 38.3253C62.7295 36.1326 61.862 33.6548 61.6368 30.8919C61.4574 28.129 61.7285 25.3004 62.4501 22.4059C63.1718 19.5115 64.3341 16.6828 65.937 13.9199C67.5399 11.1571 69.6375 8.70117 72.2298 6.55227C74.8331 4.35951 77.7561 3.17542 80.999 3Z" fill="url(#paint1_linear_12_63)"/>
<path d="M166.412 7.40745C166.106 8.63539 165.392 9.66599 164.271 10.4992C163.184 11.3763 162 11.8149 160.721 11.8149H133.3C132.421 11.8587 131.64 12.0561 130.959 12.4069C130.334 12.7139 129.829 13.0867 129.446 13.5252C129.073 13.9199 128.832 14.3366 128.723 14.7751C128.614 15.2137 128.641 15.6522 128.806 16.0908C128.982 16.4855 129.3 16.8582 129.761 17.2091C130.279 17.5161 130.966 17.6915 131.824 17.7353H151.292C154.47 17.823 156.917 18.5467 158.635 19.9062C160.409 21.2218 161.511 22.7568 161.942 24.511C162.43 26.2213 162.45 27.9755 162.001 29.7736C161.564 31.5278 160.67 33.282 159.318 35.0362C157.978 36.7466 156.11 38.2815 153.714 39.641C151.33 40.9567 148.538 41.6145 145.339 41.6145H144.927C144.642 41.6583 144.363 41.6803 144.088 41.6803H118.176C116.896 41.6803 115.903 41.2636 115.197 40.4304C114.547 39.5533 114.376 38.5008 114.682 37.2728C114.988 36.0449 115.702 35.0143 116.824 34.181C117.911 33.3039 119.094 32.8654 120.374 32.8654H147.931C148.789 32.9092 149.535 32.7557 150.171 32.4049C150.853 32.0541 151.386 31.6594 151.769 31.2208C152.164 30.7384 152.421 30.256 152.541 29.7736C152.618 29.4666 152.585 29.05 152.442 28.5237C152.309 27.9536 151.99 27.4931 151.483 27.1423C151.023 26.7914 150.363 26.5941 149.506 26.5502H130.037C126.86 26.4625 124.384 25.7608 122.61 24.4452C120.882 23.1295 119.768 21.6384 119.27 19.972C118.828 18.2616 118.825 16.5293 119.263 14.7751C119.689 13.0648 120.567 11.3763 121.897 9.70984C123.237 7.99949 125.1 6.48649 127.484 5.17083C129.869 3.85518 132.672 3.15349 135.893 3.06578H136.304C136.589 3.02193 136.869 3 137.143 3H162.918C164.198 3 165.163 3.43855 165.812 4.31566C166.519 5.1489 166.719 6.1795 166.412 7.40745Z" fill="url(#paint2_linear_12_63)"/>
<path d="M46.5174 3C48.8372 3.04386 50.7417 3.74554 52.2307 5.10505C53.7198 6.46456 54.7777 8.0872 55.4044 9.97297C56.0767 11.8587 56.4247 13.8542 56.4482 15.9592C56.4718 18.0643 56.2102 20.2132 55.6635 22.4059C54.9418 25.3004 53.7513 28.1509 52.0917 30.9577C50.4888 33.7206 48.3455 36.1764 45.6618 38.3253C43.0238 40.4742 40.0833 41.6364 36.8405 41.8118H12.9159C9.74962 41.6803 7.36039 40.54 5.74822 38.3911C4.13604 36.2422 3.22284 33.7644 3.00861 30.9577C2.84009 28.1509 3.11665 25.3004 3.83832 22.4059C4.55999 19.5115 5.72226 16.6828 7.32515 13.9199C8.93897 11.1132 11.0649 8.63539 13.7029 6.48649C16.3976 4.29373 19.3609 3.13157 22.5928 3H46.5174ZM36.7075 32.9969C38.4661 32.9092 40.0587 32.2953 41.4855 31.155C42.969 29.9709 44.1534 28.6114 45.0389 27.0765C45.9243 25.5416 46.5638 23.9847 46.9574 22.4059C47.3511 20.8271 47.4596 19.2922 47.2829 17.8011C47.1629 16.2662 46.6792 14.9067 45.8319 13.7226C44.9846 12.5385 43.7036 11.9026 41.9888 11.8149H22.5201C20.7616 11.9026 19.1634 12.5385 17.7257 13.7226C16.2879 14.9067 15.1035 16.2662 14.1724 17.8011C13.2979 19.2922 12.6638 20.8271 12.2702 22.4059C11.8766 23.9847 11.7397 25.5416 11.8598 27.0765C11.9798 28.6114 12.4634 29.9709 13.3107 31.155C14.2147 32.2953 15.524 32.9092 17.2388 32.9969H36.7075Z" stroke="url(#paint3_linear_12_63)" stroke-width="5" mask="url(#path-1-outside-1_12_63)"/>
<path d="M80.999 3H109.928C111.197 3.04386 112.133 3.50433 112.737 4.38144C113.386 5.25854 113.558 6.31107 113.252 7.53901C112.367 10.1703 110.527 11.5956 107.73 11.8149H81.1319C79.3734 11.9026 77.7753 12.5385 76.3375 13.7226C74.8997 14.9067 73.7153 16.2662 72.7842 17.8011C71.9097 19.2922 71.2757 20.8271 70.882 22.4059C70.4884 23.9847 70.3516 25.5416 70.4716 27.0765C70.6482 28.5676 71.1602 29.9052 72.0075 31.0892C72.8548 32.2733 74.1359 32.9092 75.8506 32.9969H96.6904C97.524 32.9531 98.0675 32.5145 98.3209 31.6813L99.2722 27.8659C99.4452 26.9888 99.1204 26.5502 98.2977 26.5502H80.7485C79.4688 26.5502 78.4759 26.1336 77.7696 25.3004C77.12 24.4233 76.9482 23.3707 77.2544 22.1428C77.5606 20.9148 78.2571 19.8623 79.3442 18.9852C80.4659 18.152 81.6666 17.7353 82.9463 17.7353H106.391C107.671 17.7353 108.664 18.152 109.37 18.9852C109.985 19.8185 110.167 20.8271 109.918 22.0112L106.047 37.536C105.706 38.72 105.026 39.7068 104.007 40.4962C102.931 41.3294 101.77 41.768 100.525 41.8118H71.3221C68.1667 41.6364 65.8058 40.4742 64.2393 38.3253C62.7295 36.1326 61.862 33.6548 61.6368 30.8919C61.4574 28.129 61.7285 25.3004 62.4501 22.4059C63.1718 19.5115 64.3341 16.6828 65.937 13.9199C67.5399 11.1571 69.6375 8.70117 72.2298 6.55227C74.8331 4.35951 77.7561 3.17542 80.999 3Z" stroke="url(#paint4_linear_12_63)" stroke-width="5" mask="url(#path-1-outside-1_12_63)"/>
<path d="M166.412 7.40745C166.106 8.63539 165.392 9.66599 164.271 10.4992C163.184 11.3763 162 11.8149 160.721 11.8149H133.3C132.421 11.8587 131.64 12.0561 130.959 12.4069C130.334 12.7139 129.829 13.0867 129.446 13.5252C129.073 13.9199 128.832 14.3366 128.723 14.7751C128.614 15.2137 128.641 15.6522 128.806 16.0908C128.982 16.4855 129.3 16.8582 129.761 17.2091C130.279 17.5161 130.966 17.6915 131.824 17.7353H151.292C154.47 17.823 156.917 18.5467 158.635 19.9062C160.409 21.2218 161.511 22.7568 161.942 24.511C162.43 26.2213 162.45 27.9755 162.001 29.7736C161.564 31.5278 160.67 33.282 159.318 35.0362C157.978 36.7466 156.11 38.2815 153.714 39.641C151.33 40.9567 148.538 41.6145 145.339 41.6145H144.927C144.642 41.6583 144.363 41.6803 144.088 41.6803H118.176C116.896 41.6803 115.903 41.2636 115.197 40.4304C114.547 39.5533 114.376 38.5008 114.682 37.2728C114.988 36.0449 115.702 35.0143 116.824 34.181C117.911 33.3039 119.094 32.8654 120.374 32.8654H147.931C148.789 32.9092 149.535 32.7557 150.171 32.4049C150.853 32.0541 151.386 31.6594 151.769 31.2208C152.164 30.7384 152.421 30.256 152.541 29.7736C152.618 29.4666 152.585 29.05 152.442 28.5237C152.309 27.9536 151.99 27.4931 151.483 27.1423C151.023 26.7914 150.363 26.5941 149.506 26.5502H130.037C126.86 26.4625 124.384 25.7608 122.61 24.4452C120.882 23.1295 119.768 21.6384 119.27 19.972C118.828 18.2616 118.825 16.5293 119.263 14.7751C119.689 13.0648 120.567 11.3763 121.897 9.70984C123.237 7.99949 125.1 6.48649 127.484 5.17083C129.869 3.85518 132.672 3.15349 135.893 3.06578H136.304C136.589 3.02193 136.869 3 137.143 3H162.918C164.198 3 165.163 3.43855 165.812 4.31566C166.519 5.1489 166.719 6.1795 166.412 7.40745Z" stroke="url(#paint5_linear_12_63)" stroke-width="5" mask="url(#path-1-outside-1_12_63)"/>
<defs>
<linearGradient id="paint0_linear_12_63" x1="101.237" y1="2.8737" x2="101.237" y2="36.2177" gradientUnits="userSpaceOnUse">
<stop stop-color="white"/>
<stop offset="0.41" stop-color="#CCCCCC"/>
<stop offset="1" stop-color="#9B9B9B"/>
</linearGradient>
<linearGradient id="paint1_linear_12_63" x1="101.237" y1="2.8737" x2="101.237" y2="36.2177" gradientUnits="userSpaceOnUse">
<stop stop-color="white"/>
<stop offset="0.41" stop-color="#CCCCCC"/>
<stop offset="1" stop-color="#9B9B9B"/>
</linearGradient>
<linearGradient id="paint2_linear_12_63" x1="101.237" y1="2.8737" x2="101.237" y2="36.2177" gradientUnits="userSpaceOnUse">
<stop stop-color="white"/>
<stop offset="0.41" stop-color="#CCCCCC"/>
<stop offset="1" stop-color="#9B9B9B"/>
</linearGradient>
<linearGradient id="paint3_linear_12_63" x1="97.3759" y1="2.8737" x2="97.3759" y2="41.9434" gradientUnits="userSpaceOnUse">
<stop stop-color="#1B1B1B"/>
<stop offset="1" stop-color="#8C8C8C"/>
</linearGradient>
<linearGradient id="paint4_linear_12_63" x1="97.3759" y1="2.8737" x2="97.3759" y2="41.9434" gradientUnits="userSpaceOnUse">
<stop stop-color="#1B1B1B"/>
<stop offset="1" stop-color="#8C8C8C"/>
</linearGradient>
<linearGradient id="paint5_linear_12_63" x1="97.3759" y1="2.8737" x2="97.3759" y2="41.9434" gradientUnits="userSpaceOnUse">
<stop stop-color="#1B1B1B"/>
<stop offset="1" stop-color="#8C8C8C"/>
</linearGradient>
</defs>
</svg>
