<svg width="16" height="17" viewBox="0 0 16 17" fill="none" xmlns="http://www.w3.org/2000/svg">
<path fill-rule="evenodd" clip-rule="evenodd" d="M6 0.5C2.68628 0.5 0 3.18629 0 6.5C0 9.81371 2.68628 12.5 6 12.5C9.31372 12.5 12 9.81371 12 6.5C12 3.18629 9.31372 0.5 6 0.5ZM6 2.5C3.79083 2.5 2 4.29086 2 6.5C2 8.70914 3.79083 10.5 6 10.5C8.20917 10.5 10 8.70914 10 6.5C10 4.29086 8.20917 2.5 6 2.5Z" fill="#DFDFDF"/>
<path d="M11.5 10L14 12C15.0941 13.0941 16 14.3693 16 15.9166C16 16.2388 15.7344 16.5 15.4122 16.5C13.7381 16.5 12.6481 15.7184 11.5 14.5L9.5 12L11.5 10Z" fill="#DFDFDF"/>
</svg>
